<svg xmlns="http://www.w3.org/2000/svg" xmlns:xlink="http://www.w3.org/1999/xlink" width="160" height="120" version="1.1" viewBox="0 0 160 120"><title>Group</title><desc>Created with Sketch.</desc><defs><linearGradient id="linearGradient-1" x1="50%" x2="50%" y1="147.774%" y2="10.759%"><stop offset="0%" stop-color="#101320" stop-opacity="0"/><stop offset="100%" stop-color="#FFF" stop-opacity=".16"/></linearGradient></defs><g id="Symbols" fill="none" fill-rule="evenodd" stroke="none" stroke-width="1"><g id="images/img-charts-without-countdown-scale"><g id="Group"><rect id="bg-all" width="160" height="120" x="0" y="0" fill="#151717" fill-rule="nonzero" rx="4"/><polygon id="chart-bg" fill="url(#linearGradient-1)" fill-opacity=".8" points="95.998 34.453 86.5 34.388 81.5 60.656 79.5 40.955 54.5 34.388 52.5 16 29.5 34.388 25.5 54.089 22.5 16 13.5 73.79 0 73.79 0 119.103 96 120"/><path id="chart-line" fill="#FFF" fill-rule="nonzero" d="M96,34.0767664 C95.9744391,34.4118839 95.7593499,34.6670853 95.5024665,34.6670853 L86.9257737,34.6670853 L81.9952597,60.3412469 C81.9008675,61.0837685 81.082303,61.0662756 81.0064192,60.3201151 L79.0247266,40.8342642 L54.1111833,34.4210548 C54.0553737,34.3295927 54.0192743,34.2201969 54.0066399,34.1042454 L52.1138188,16.7330614 L29.932301,34.4346921 L25.9838943,53.8469011 C25.8408201,54.5503207 25.0605392,54.4695823 25.0034016,53.7454462 L22.3382508,19.968503 L13.9902757,73.4758141 C13.9426762,73.7809089 13.7379307,74 13.5004036,74 L3.56692453e-12,74 L3.56692453e-12,72.6888962 L13.0923116,72.6888962 L22.0108006,15.5248105 C22.1254462,14.7899762 22.9391654,14.8426568 22.9980335,15.5887245 L25.7183046,50.0642393 L29.0177501,33.8426265 C29.0509385,33.6794568 29.1308751,33.5393727 29.2409007,33.4515683 L52.2415884,15.0962114 C52.5482187,14.8515096 52.9457933,15.0975731 52.9965592,15.5634714 L54.9773207,33.7417208 L79.8924343,40.1575036 C79.9492347,40.2505895 79.9855999,40.3622194 79.9976169,40.4803818 L81.5569981,55.8136726 L86.0089857,33.9037654 C86.0491693,33.5876678 86.2577706,33.3559884 86.5021975,33.3559884 C91.75802,33.3223935 94.607274,33.3223935 95.0499592,33.3559884 C95.4926445,33.3895833 95.8093248,33.6298427 96,34.0767664 Z"/><path id="current-spot" fill="#FF444F" d="M115.279851,33.6666667 L121.716418,26 L160,26 L160,42 L121.716418,42 L115.279851,34.3333333 L113,34.3333333 L113,33.6666667 L115.279851,33.6666667 Z M98.8612798,33.6666667 L99.6666667,33.6666667 L99.6666667,34.3333333 L98.9989098,34.3333333 C98.9996347,34.3554665 99,34.3776906 99,34.4 C99,35.5045695 98.1045695,36.4 97,36.4 C95.8954305,36.4 95,35.5045695 95,34.4 C95,33.2954305 95.8954305,32.4 97,32.4 C97.8456922,32.4 98.5687892,32.9248926 98.8612798,33.6666667 Z M102.333333,34.3333333 L102.333333,33.6666667 L105,33.6666667 L105,34.3333333 L102.333333,34.3333333 Z M107.666667,34.3333333 L107.666667,33.6666667 L110.333334,33.6666667 L110.333334,34.3333333 L107.666667,34.3333333 Z"/></g></g></g></svg>